<mxfile host="app.diagrams.net" modified="2023-10-27T15:43:43.834Z" agent="Mozilla/5.0 (Windows NT 10.0; Win64; x64) AppleWebKit/537.36 (KHTML, like Gecko) Chrome/117.0.0.0 Safari/537.36 Edg/117.0.2045.47" etag="dTpvRX83B3VIGIVFWc56" version="22.0.8" type="device">
  <diagram name="Page-1" id="r9BYO7mRh3VTH3ZXkG50">
    <mxGraphModel dx="1188" dy="661" grid="1" gridSize="10" guides="1" tooltips="1" connect="1" arrows="1" fold="1" page="1" pageScale="1" pageWidth="3300" pageHeight="4681" math="0" shadow="0">
      <root>
        <mxCell id="0" />
        <mxCell id="1" parent="0" />
        <mxCell id="nPnalCypMQ2Yc7yDm3em-2" value="" style="rounded=0;whiteSpace=wrap;html=1;" parent="1" vertex="1">
          <mxGeometry x="387.86" y="20" width="752.14" height="500" as="geometry" />
        </mxCell>
        <mxCell id="nPnalCypMQ2Yc7yDm3em-58" style="edgeStyle=orthogonalEdgeStyle;rounded=0;orthogonalLoop=1;jettySize=auto;html=1;entryX=0.998;entryY=0.644;entryDx=0;entryDy=0;entryPerimeter=0;" parent="1" source="nPnalCypMQ2Yc7yDm3em-3" target="nPnalCypMQ2Yc7yDm3em-31" edge="1">
          <mxGeometry relative="1" as="geometry">
            <Array as="points">
              <mxPoint x="695" y="210" />
            </Array>
          </mxGeometry>
        </mxCell>
        <mxCell id="nPnalCypMQ2Yc7yDm3em-3" value="" style="rounded=0;whiteSpace=wrap;html=1;" parent="1" vertex="1">
          <mxGeometry x="750" y="70" width="374.96" height="280" as="geometry" />
        </mxCell>
        <mxCell id="nPnalCypMQ2Yc7yDm3em-61" style="edgeStyle=orthogonalEdgeStyle;rounded=0;orthogonalLoop=1;jettySize=auto;html=1;exitX=0;exitY=0;exitDx=0;exitDy=86.25000000000001;exitPerimeter=0;entryX=1;entryY=0.75;entryDx=0;entryDy=0;" parent="1" source="nPnalCypMQ2Yc7yDm3em-1" target="nPnalCypMQ2Yc7yDm3em-30" edge="1">
          <mxGeometry relative="1" as="geometry" />
        </mxCell>
        <mxCell id="nPnalCypMQ2Yc7yDm3em-1" value="DB" style="shape=cylinder3;whiteSpace=wrap;html=1;boundedLbl=1;backgroundOutline=1;size=15;" parent="1" vertex="1">
          <mxGeometry x="949.997094017094" y="215.305" width="90.25641025641026" height="125" as="geometry" />
        </mxCell>
        <mxCell id="nPnalCypMQ2Yc7yDm3em-4" value="API Server" style="text;html=1;align=center;verticalAlign=middle;resizable=0;points=[];autosize=1;strokeColor=none;fillColor=none;" parent="1" vertex="1">
          <mxGeometry x="703.7606837606837" y="20" width="80" height="30" as="geometry" />
        </mxCell>
        <mxCell id="nPnalCypMQ2Yc7yDm3em-5" value="" style="shape=waypoint;sketch=0;fillStyle=solid;size=6;pointerEvents=1;points=[];fillColor=none;resizable=0;rotatable=0;perimeter=centerPerimeter;snapToPoint=1;" parent="1" vertex="1">
          <mxGeometry x="312.64957264957263" y="98.125" width="20" height="20" as="geometry" />
        </mxCell>
        <mxCell id="nPnalCypMQ2Yc7yDm3em-6" style="edgeStyle=orthogonalEdgeStyle;rounded=0;orthogonalLoop=1;jettySize=auto;html=1;entryX=-0.049;entryY=0.583;entryDx=0;entryDy=0;entryPerimeter=0;endArrow=none;endFill=0;" parent="1" source="nPnalCypMQ2Yc7yDm3em-5" target="nPnalCypMQ2Yc7yDm3em-19" edge="1">
          <mxGeometry relative="1" as="geometry" />
        </mxCell>
        <mxCell id="nPnalCypMQ2Yc7yDm3em-11" style="edgeStyle=orthogonalEdgeStyle;rounded=0;orthogonalLoop=1;jettySize=auto;html=1;entryX=0;entryY=0.5;entryDx=0;entryDy=0;endArrow=none;endFill=0;exitX=0.368;exitY=0.281;exitDx=0;exitDy=0;exitPerimeter=0;" parent="1" source="nPnalCypMQ2Yc7yDm3em-7" target="nPnalCypMQ2Yc7yDm3em-2" edge="1">
          <mxGeometry relative="1" as="geometry">
            <Array as="points">
              <mxPoint x="323" y="260" />
              <mxPoint x="388" y="260" />
            </Array>
          </mxGeometry>
        </mxCell>
        <mxCell id="nPnalCypMQ2Yc7yDm3em-7" value="" style="shape=waypoint;sketch=0;fillStyle=solid;size=6;pointerEvents=1;points=[];fillColor=none;resizable=0;rotatable=0;perimeter=centerPerimeter;snapToPoint=1;" parent="1" vertex="1">
          <mxGeometry x="309.99957264957266" y="250.005" width="20" height="20" as="geometry" />
        </mxCell>
        <mxCell id="nPnalCypMQ2Yc7yDm3em-8" value="" style="shape=waypoint;sketch=0;fillStyle=solid;size=6;pointerEvents=1;points=[];fillColor=none;resizable=0;rotatable=0;perimeter=centerPerimeter;snapToPoint=1;opacity=30;" parent="1" vertex="1">
          <mxGeometry x="309.99957264957266" y="290.625" width="20" height="20" as="geometry" />
        </mxCell>
        <mxCell id="nPnalCypMQ2Yc7yDm3em-15" value="Statistics" style="text;html=1;align=center;verticalAlign=middle;resizable=0;points=[];autosize=1;strokeColor=none;fillColor=none;" parent="1" vertex="1">
          <mxGeometry x="285" y="68.13" width="70" height="30" as="geometry" />
        </mxCell>
        <mxCell id="nPnalCypMQ2Yc7yDm3em-16" value="Arm 1" style="text;html=1;align=center;verticalAlign=middle;resizable=0;points=[];autosize=1;strokeColor=none;fillColor=none;" parent="1" vertex="1">
          <mxGeometry x="252.65136752136752" y="245.005" width="60" height="30" as="geometry" />
        </mxCell>
        <mxCell id="nPnalCypMQ2Yc7yDm3em-19" value="Get" style="text;html=1;align=center;verticalAlign=middle;resizable=0;points=[];autosize=1;strokeColor=none;fillColor=none;" parent="1" vertex="1">
          <mxGeometry x="385.3432478632479" y="90.3125" width="40" height="30" as="geometry" />
        </mxCell>
        <mxCell id="nPnalCypMQ2Yc7yDm3em-20" value="Post" style="text;html=1;align=center;verticalAlign=middle;resizable=0;points=[];autosize=1;strokeColor=none;fillColor=none;" parent="1" vertex="1">
          <mxGeometry x="380.3418803418803" y="246.5625" width="50" height="30" as="geometry" />
        </mxCell>
        <mxCell id="nPnalCypMQ2Yc7yDm3em-23" value="Package" style="text;html=1;align=center;verticalAlign=middle;resizable=0;points=[];autosize=1;strokeColor=none;fillColor=none;" parent="1" vertex="1">
          <mxGeometry x="902.4835042735043" y="80.0025" width="70" height="30" as="geometry" />
        </mxCell>
        <mxCell id="nPnalCypMQ2Yc7yDm3em-27" value="Arm 2" style="text;html=1;align=center;verticalAlign=middle;resizable=0;points=[];autosize=1;strokeColor=none;fillColor=none;" parent="1" vertex="1">
          <mxGeometry x="252.65136752136752" y="285.625" width="60" height="30" as="geometry" />
        </mxCell>
        <mxCell id="nPnalCypMQ2Yc7yDm3em-28" value="Arm 3" style="text;html=1;align=center;verticalAlign=middle;resizable=0;points=[];autosize=1;strokeColor=none;fillColor=none;" parent="1" vertex="1">
          <mxGeometry x="252.65136752136746" y="324.685" width="60" height="30" as="geometry" />
        </mxCell>
        <mxCell id="nPnalCypMQ2Yc7yDm3em-29" value="&lt;font style=&quot;font-size: 9px;&quot;&gt;Same endpoint, different id and user&lt;/font&gt;" style="text;html=1;strokeColor=none;fillColor=none;align=center;verticalAlign=middle;whiteSpace=wrap;rounded=0;" parent="1" vertex="1">
          <mxGeometry x="390" y="275" width="90" height="46.88" as="geometry" />
        </mxCell>
        <mxCell id="nPnalCypMQ2Yc7yDm3em-56" style="edgeStyle=orthogonalEdgeStyle;rounded=0;orthogonalLoop=1;jettySize=auto;html=1;" parent="1" source="nPnalCypMQ2Yc7yDm3em-31" edge="1">
          <mxGeometry relative="1" as="geometry">
            <mxPoint x="750" y="204" as="targetPoint" />
            <Array as="points">
              <mxPoint x="720" y="204" />
              <mxPoint x="750" y="204" />
            </Array>
          </mxGeometry>
        </mxCell>
        <mxCell id="nPnalCypMQ2Yc7yDm3em-57" value="calls" style="edgeLabel;html=1;align=center;verticalAlign=middle;resizable=0;points=[];" parent="nPnalCypMQ2Yc7yDm3em-56" vertex="1" connectable="0">
          <mxGeometry x="-0.284" y="-1" relative="1" as="geometry">
            <mxPoint x="11" y="-15" as="offset" />
          </mxGeometry>
        </mxCell>
        <mxCell id="nPnalCypMQ2Yc7yDm3em-59" value="statistics,&lt;br&gt;investment strats" style="edgeLabel;html=1;align=center;verticalAlign=middle;resizable=0;points=[];" parent="nPnalCypMQ2Yc7yDm3em-56" vertex="1" connectable="0">
          <mxGeometry x="-0.284" y="-1" relative="1" as="geometry">
            <mxPoint x="11" y="25" as="offset" />
          </mxGeometry>
        </mxCell>
        <mxCell id="nPnalCypMQ2Yc7yDm3em-31" value="" style="rounded=0;whiteSpace=wrap;html=1;" parent="1" vertex="1">
          <mxGeometry x="540" y="180" width="100" height="47.5" as="geometry" />
        </mxCell>
        <mxCell id="nPnalCypMQ2Yc7yDm3em-73" style="edgeStyle=orthogonalEdgeStyle;rounded=0;orthogonalLoop=1;jettySize=auto;html=1;exitX=0.75;exitY=0;exitDx=0;exitDy=0;entryX=0;entryY=0.25;entryDx=0;entryDy=0;" parent="1" source="nPnalCypMQ2Yc7yDm3em-32" target="nPnalCypMQ2Yc7yDm3em-3" edge="1">
          <mxGeometry relative="1" as="geometry">
            <Array as="points">
              <mxPoint x="613" y="140" />
            </Array>
          </mxGeometry>
        </mxCell>
        <mxCell id="nPnalCypMQ2Yc7yDm3em-74" value="Model configuration" style="edgeLabel;html=1;align=center;verticalAlign=middle;resizable=0;points=[];" parent="nPnalCypMQ2Yc7yDm3em-73" vertex="1" connectable="0">
          <mxGeometry x="-0.0117" y="-2" relative="1" as="geometry">
            <mxPoint x="10" y="-2" as="offset" />
          </mxGeometry>
        </mxCell>
        <mxCell id="nPnalCypMQ2Yc7yDm3em-32" value="API" style="text;html=1;strokeColor=none;fillColor=none;align=center;verticalAlign=middle;whiteSpace=wrap;rounded=0;" parent="1" vertex="1">
          <mxGeometry x="544.8742735042734" y="180.62" width="90.25641025641026" height="46.875" as="geometry" />
        </mxCell>
        <mxCell id="nPnalCypMQ2Yc7yDm3em-33" style="edgeStyle=orthogonalEdgeStyle;rounded=0;orthogonalLoop=1;jettySize=auto;html=1;entryX=0;entryY=0.25;entryDx=0;entryDy=0;" parent="1" source="nPnalCypMQ2Yc7yDm3em-19" target="nPnalCypMQ2Yc7yDm3em-31" edge="1">
          <mxGeometry relative="1" as="geometry" />
        </mxCell>
        <mxCell id="nPnalCypMQ2Yc7yDm3em-34" style="edgeStyle=orthogonalEdgeStyle;rounded=0;orthogonalLoop=1;jettySize=auto;html=1;entryX=0.002;entryY=0.542;entryDx=0;entryDy=0;entryPerimeter=0;" parent="1" source="nPnalCypMQ2Yc7yDm3em-29" target="nPnalCypMQ2Yc7yDm3em-31" edge="1">
          <mxGeometry relative="1" as="geometry" />
        </mxCell>
        <mxCell id="nPnalCypMQ2Yc7yDm3em-71" style="edgeStyle=orthogonalEdgeStyle;rounded=0;orthogonalLoop=1;jettySize=auto;html=1;exitX=0.762;exitY=1.012;exitDx=0;exitDy=0;entryX=0.5;entryY=0;entryDx=0;entryDy=0;exitPerimeter=0;" parent="1" source="nPnalCypMQ2Yc7yDm3em-50" target="nPnalCypMQ2Yc7yDm3em-66" edge="1">
          <mxGeometry relative="1" as="geometry" />
        </mxCell>
        <mxCell id="nPnalCypMQ2Yc7yDm3em-72" value="Model state" style="edgeLabel;html=1;align=center;verticalAlign=middle;resizable=0;points=[];" parent="nPnalCypMQ2Yc7yDm3em-71" vertex="1" connectable="0">
          <mxGeometry x="-0.0247" y="-1" relative="1" as="geometry">
            <mxPoint x="-1" y="-1" as="offset" />
          </mxGeometry>
        </mxCell>
        <mxCell id="nPnalCypMQ2Yc7yDm3em-50" value="Model class" style="rounded=0;whiteSpace=wrap;html=1;" parent="1" vertex="1">
          <mxGeometry x="959.33" y="120.31" width="151.58" height="80.01" as="geometry" />
        </mxCell>
        <mxCell id="nPnalCypMQ2Yc7yDm3em-37" style="edgeStyle=orthogonalEdgeStyle;rounded=0;orthogonalLoop=1;jettySize=auto;html=1;entryX=0;entryY=0.561;entryDx=0;entryDy=0;entryPerimeter=0;endArrow=none;endFill=0;opacity=20;" parent="1" source="nPnalCypMQ2Yc7yDm3em-8" target="nPnalCypMQ2Yc7yDm3em-2" edge="1">
          <mxGeometry relative="1" as="geometry" />
        </mxCell>
        <mxCell id="nPnalCypMQ2Yc7yDm3em-38" value="" style="shape=waypoint;sketch=0;fillStyle=solid;size=6;pointerEvents=1;points=[];fillColor=none;resizable=0;rotatable=0;perimeter=centerPerimeter;snapToPoint=1;opacity=30;" parent="1" vertex="1">
          <mxGeometry x="309.99957264957266" y="329.685" width="20" height="20" as="geometry" />
        </mxCell>
        <mxCell id="nPnalCypMQ2Yc7yDm3em-40" style="edgeStyle=orthogonalEdgeStyle;rounded=0;orthogonalLoop=1;jettySize=auto;html=1;entryX=-0.001;entryY=0.639;entryDx=0;entryDy=0;entryPerimeter=0;endArrow=none;endFill=0;opacity=20;" parent="1" source="nPnalCypMQ2Yc7yDm3em-38" target="nPnalCypMQ2Yc7yDm3em-2" edge="1">
          <mxGeometry relative="1" as="geometry" />
        </mxCell>
        <mxCell id="nPnalCypMQ2Yc7yDm3em-43" value="" style="endArrow=none;dashed=1;html=1;dashPattern=1 3;strokeWidth=2;rounded=0;" parent="1" edge="1">
          <mxGeometry width="50" height="50" relative="1" as="geometry">
            <mxPoint x="350" y="360" as="sourcePoint" />
            <mxPoint x="350" y="400" as="targetPoint" />
          </mxGeometry>
        </mxCell>
        <mxCell id="nPnalCypMQ2Yc7yDm3em-52" style="edgeStyle=orthogonalEdgeStyle;rounded=0;orthogonalLoop=1;jettySize=auto;html=1;exitX=0.75;exitY=1;exitDx=0;exitDy=0;entryX=-0.007;entryY=0.797;entryDx=0;entryDy=0;entryPerimeter=0;" parent="1" source="nPnalCypMQ2Yc7yDm3em-31" target="nPnalCypMQ2Yc7yDm3em-3" edge="1">
          <mxGeometry relative="1" as="geometry">
            <mxPoint x="750" y="260" as="targetPoint" />
            <Array as="points">
              <mxPoint x="615" y="293" />
            </Array>
          </mxGeometry>
        </mxCell>
        <mxCell id="nPnalCypMQ2Yc7yDm3em-55" value="DB Configuration" style="edgeLabel;html=1;align=center;verticalAlign=middle;resizable=0;points=[];" parent="nPnalCypMQ2Yc7yDm3em-52" vertex="1" connectable="0">
          <mxGeometry x="0.3803" relative="1" as="geometry">
            <mxPoint x="-15" as="offset" />
          </mxGeometry>
        </mxCell>
        <mxCell id="nPnalCypMQ2Yc7yDm3em-64" style="edgeStyle=orthogonalEdgeStyle;rounded=0;orthogonalLoop=1;jettySize=auto;html=1;exitX=0.25;exitY=0;exitDx=0;exitDy=0;entryX=0;entryY=0.25;entryDx=0;entryDy=0;" parent="1" source="nPnalCypMQ2Yc7yDm3em-30" target="nPnalCypMQ2Yc7yDm3em-50" edge="1">
          <mxGeometry relative="1" as="geometry" />
        </mxCell>
        <mxCell id="nPnalCypMQ2Yc7yDm3em-65" value="Data" style="edgeLabel;html=1;align=center;verticalAlign=middle;resizable=0;points=[];" parent="nPnalCypMQ2Yc7yDm3em-64" vertex="1" connectable="0">
          <mxGeometry x="0.1987" y="-2" relative="1" as="geometry">
            <mxPoint as="offset" />
          </mxGeometry>
        </mxCell>
        <mxCell id="nPnalCypMQ2Yc7yDm3em-30" value="DB class" style="rounded=0;whiteSpace=wrap;html=1;" parent="1" vertex="1">
          <mxGeometry x="800" y="230.92999999999998" width="125.34" height="93.75" as="geometry" />
        </mxCell>
        <mxCell id="nPnalCypMQ2Yc7yDm3em-60" style="edgeStyle=orthogonalEdgeStyle;rounded=0;orthogonalLoop=1;jettySize=auto;html=1;entryX=0;entryY=0.5;entryDx=0;entryDy=0;entryPerimeter=0;" parent="1" source="nPnalCypMQ2Yc7yDm3em-30" target="nPnalCypMQ2Yc7yDm3em-1" edge="1">
          <mxGeometry relative="1" as="geometry" />
        </mxCell>
        <mxCell id="nPnalCypMQ2Yc7yDm3em-62" style="edgeStyle=orthogonalEdgeStyle;rounded=0;orthogonalLoop=1;jettySize=auto;html=1;exitX=0;exitY=0.75;exitDx=0;exitDy=0;entryX=0.75;entryY=0;entryDx=0;entryDy=0;" parent="1" source="nPnalCypMQ2Yc7yDm3em-50" target="nPnalCypMQ2Yc7yDm3em-30" edge="1">
          <mxGeometry relative="1" as="geometry" />
        </mxCell>
        <mxCell id="nPnalCypMQ2Yc7yDm3em-63" value="Investment&lt;br&gt;strategy" style="edgeLabel;html=1;align=center;verticalAlign=middle;resizable=0;points=[];fillColor=none;" parent="nPnalCypMQ2Yc7yDm3em-62" vertex="1" connectable="0">
          <mxGeometry x="-0.2835" y="-1" relative="1" as="geometry">
            <mxPoint as="offset" />
          </mxGeometry>
        </mxCell>
        <mxCell id="nPnalCypMQ2Yc7yDm3em-66" value="In-memory cache" style="rounded=0;whiteSpace=wrap;html=1;" parent="1" vertex="1">
          <mxGeometry x="1050" y="250" width="50" height="82.8" as="geometry" />
        </mxCell>
        <mxCell id="nPnalCypMQ2Yc7yDm3em-70" style="edgeStyle=orthogonalEdgeStyle;rounded=0;orthogonalLoop=1;jettySize=auto;html=1;exitX=0.25;exitY=0;exitDx=0;exitDy=0;entryX=0.681;entryY=0.996;entryDx=0;entryDy=0;entryPerimeter=0;" parent="1" source="nPnalCypMQ2Yc7yDm3em-66" target="nPnalCypMQ2Yc7yDm3em-50" edge="1">
          <mxGeometry relative="1" as="geometry" />
        </mxCell>
        <mxCell id="nPnalCypMQ2Yc7yDm3em-75" value="The model can be configured to:&lt;br&gt;- retrain every m calls" style="text;html=1;strokeColor=none;fillColor=none;align=left;verticalAlign=middle;whiteSpace=wrap;rounded=0;" parent="1" vertex="1">
          <mxGeometry x="430.34" y="400" width="129.66" height="30" as="geometry" />
        </mxCell>
        <mxCell id="4HQlbFwjYi0fy971VR-v-1" value="The DB can be configured to:&lt;br&gt;- set location" style="text;html=1;strokeColor=none;fillColor=none;align=left;verticalAlign=middle;whiteSpace=wrap;rounded=0;" vertex="1" parent="1">
          <mxGeometry x="590" y="400" width="129.66" height="30" as="geometry" />
        </mxCell>
      </root>
    </mxGraphModel>
  </diagram>
</mxfile>
